<svg xmlns="http://www.w3.org/2000/svg" viewBox="0 0 1920 1080" width="1920" height="1080">
  <defs>
    <!-- Star glow -->
    <radialGradient id="starGlow" cx="50%" cy="50%" r="50%">
      <stop offset="0%" stop-color="#ff6633" stop-opacity="1"/>
      <stop offset="25%" stop-color="#cc3300" stop-opacity="0.8"/>
      <stop offset="50%" stop-color="#ff4400" stop-opacity="0.2"/>
      <stop offset="80%" stop-color="#ff4400" stop-opacity="0.06"/>
      <stop offset="100%" stop-color="#ff4400" stop-opacity="0"/>
    </radialGradient>
    <!-- Star core -->
    <radialGradient id="starCore" cx="45%" cy="45%" r="50%">
      <stop offset="0%" stop-color="#ffaa66"/>
      <stop offset="40%" stop-color="#ff6633"/>
      <stop offset="85%" stop-color="#cc3300"/>
      <stop offset="100%" stop-color="#992200"/>
    </radialGradient>
    <!-- Planet base -->
    <radialGradient id="planetBase" cx="38%" cy="38%" r="55%">
      <stop offset="0%" stop-color="#8a7560"/>
      <stop offset="50%" stop-color="#6b5d4d"/>
      <stop offset="85%" stop-color="#3d352d"/>
      <stop offset="100%" stop-color="#1a1510"/>
    </radialGradient>
    <!-- Planet shadow (terminator) -->
    <radialGradient id="planetShadow" cx="30%" cy="35%" r="65%">
      <stop offset="0%" stop-color="#000000" stop-opacity="0"/>
      <stop offset="55%" stop-color="#000000" stop-opacity="0"/>
      <stop offset="75%" stop-color="#000000" stop-opacity="0.5"/>
      <stop offset="90%" stop-color="#000000" stop-opacity="0.85"/>
      <stop offset="100%" stop-color="#000000" stop-opacity="0.95"/>
    </radialGradient>
    <!-- Atmosphere limb -->
    <radialGradient id="atmosLimb" cx="35%" cy="35%" r="52%">
      <stop offset="90%" stop-color="#cccccc" stop-opacity="0"/>
      <stop offset="97%" stop-color="#aaaaaa" stop-opacity="0.08"/>
      <stop offset="100%" stop-color="#888888" stop-opacity="0"/>
    </radialGradient>
    <!-- Ship hull -->
    <linearGradient id="hullGrad" x1="0%" y1="0%" x2="100%" y2="100%">
      <stop offset="0%" stop-color="#7a6b58"/>
      <stop offset="50%" stop-color="#6b5d4d"/>
      <stop offset="100%" stop-color="#3d352d"/>
    </linearGradient>
    <!-- Engine bloom -->
    <radialGradient id="engineBloom" cx="50%" cy="50%" r="50%">
      <stop offset="0%" stop-color="#ffffff" stop-opacity="0.9"/>
      <stop offset="30%" stop-color="#88ccff" stop-opacity="0.7"/>
      <stop offset="70%" stop-color="#4488cc" stop-opacity="0.2"/>
      <stop offset="100%" stop-color="#4488cc" stop-opacity="0"/>
    </radialGradient>
    <!-- Jump ripple -->
    <radialGradient id="jumpRipple" cx="50%" cy="50%" r="50%">
      <stop offset="0%" stop-color="#6633cc" stop-opacity="0.08"/>
      <stop offset="50%" stop-color="#6633cc" stop-opacity="0.04"/>
      <stop offset="100%" stop-color="#6633cc" stop-opacity="0"/>
    </radialGradient>
    <!-- Filters -->
    <filter id="starBloom" x="-50%" y="-50%" width="200%" height="200%">
      <feGaussianBlur stdDeviation="8" result="bloom"/>
      <feMerge><feMergeNode in="bloom"/><feMergeNode in="SourceGraphic"/></feMerge>
    </filter>
    <filter id="softGlow" x="-30%" y="-30%" width="160%" height="160%">
      <feGaussianBlur stdDeviation="3" result="glow"/>
      <feMerge><feMergeNode in="glow"/><feMergeNode in="SourceGraphic"/></feMerge>
    </filter>
    <filter id="tinyGlow" x="-50%" y="-50%" width="200%" height="200%">
      <feGaussianBlur stdDeviation="1.5"/>
    </filter>
    <filter id="engineGlow" x="-100%" y="-100%" width="300%" height="300%">
      <feGaussianBlur stdDeviation="4" result="g"/>
      <feMerge><feMergeNode in="g"/><feMergeNode in="SourceGraphic"/></feMerge>
    </filter>
    <filter id="domeGlow" x="-100%" y="-100%" width="300%" height="300%">
      <feGaussianBlur stdDeviation="2" result="g"/>
      <feMerge><feMergeNode in="g"/><feMergeNode in="SourceGraphic"/></feMerge>
    </filter>
    <!-- Planet clip -->
    <clipPath id="planetClip">
      <circle cx="1150" cy="480" r="72"/>
    </clipPath>
  </defs>

  <!-- ============================================ -->
  <!-- LAYER 1: DEEP SPACE BACKGROUND              -->
  <!-- ============================================ -->
  <rect width="1920" height="1080" fill="#05050a"/>

  <!-- Starfield: ~200 stars, varying size/color/opacity -->
  <g>
    <!-- White stars -->
    <circle cx="45" cy="32" r="0.7" fill="#ffffff" opacity="0.6"/>
    <circle cx="120" cy="88" r="0.5" fill="#ffffff" opacity="0.4"/>
    <circle cx="198" cy="15" r="1.0" fill="#ffffff" opacity="0.8"/>
    <circle cx="275" cy="142" r="0.6" fill="#ffffff" opacity="0.5"/>
    <circle cx="310" cy="55" r="0.8" fill="#ffffff" opacity="0.7"/>
    <circle cx="422" cy="98" r="0.5" fill="#ffffff" opacity="0.35"/>
    <circle cx="490" cy="22" r="0.9" fill="#ffffff" opacity="0.6"/>
    <circle cx="530" cy="175" r="0.6" fill="#ffffff" opacity="0.45"/>
    <circle cx="615" cy="60" r="0.7" fill="#ffffff" opacity="0.55"/>
    <circle cx="680" cy="130" r="0.5" fill="#ffffff" opacity="0.4"/>
    <circle cx="755" cy="45" r="1.1" fill="#ffffff" opacity="0.75"/>
    <circle cx="830" cy="110" r="0.6" fill="#ffffff" opacity="0.5"/>
    <circle cx="905" cy="30" r="0.8" fill="#ffffff" opacity="0.65"/>
    <circle cx="1020" cy="75" r="0.5" fill="#ffffff" opacity="0.4"/>
    <circle cx="1095" cy="20" r="0.7" fill="#ffffff" opacity="0.55"/>
    <circle cx="1180" cy="105" r="0.6" fill="#ffffff" opacity="0.45"/>
    <circle cx="1260" cy="42" r="0.9" fill="#ffffff" opacity="0.7"/>
    <circle cx="1340" cy="160" r="0.5" fill="#ffffff" opacity="0.35"/>
    <circle cx="1420" cy="55" r="0.7" fill="#ffffff" opacity="0.5"/>
    <circle cx="1510" cy="130" r="0.6" fill="#ffffff" opacity="0.55"/>
    <circle cx="1590" cy="38" r="0.8" fill="#ffffff" opacity="0.6"/>
    <circle cx="1665" cy="95" r="0.5" fill="#ffffff" opacity="0.4"/>
    <circle cx="1740" cy="22" r="1.0" fill="#ffffff" opacity="0.75"/>
    <circle cx="1825" cy="68" r="0.6" fill="#ffffff" opacity="0.5"/>
    <circle cx="1895" cy="140" r="0.7" fill="#ffffff" opacity="0.55"/>
    <!-- More white scattered mid-frame -->
    <circle cx="55" cy="340" r="0.6" fill="#ffffff" opacity="0.5"/>
    <circle cx="140" cy="420" r="0.5" fill="#ffffff" opacity="0.4"/>
    <circle cx="225" cy="510" r="0.8" fill="#ffffff" opacity="0.6"/>
    <circle cx="85" cy="620" r="0.7" fill="#ffffff" opacity="0.55"/>
    <circle cx="170" cy="740" r="0.5" fill="#ffffff" opacity="0.35"/>
    <circle cx="60" cy="850" r="0.9" fill="#ffffff" opacity="0.65"/>
    <circle cx="155" cy="950" r="0.6" fill="#ffffff" opacity="0.5"/>
    <circle cx="240" cy="1020" r="0.7" fill="#ffffff" opacity="0.55"/>
    <circle cx="330" cy="890" r="0.5" fill="#ffffff" opacity="0.4"/>
    <circle cx="440" cy="760" r="0.8" fill="#ffffff" opacity="0.6"/>
    <circle cx="520" cy="650" r="0.6" fill="#ffffff" opacity="0.45"/>
    <circle cx="610" cy="540" r="0.5" fill="#ffffff" opacity="0.4"/>
    <circle cx="680" cy="420" r="0.7" fill="#ffffff" opacity="0.5"/>
    <circle cx="770" cy="310" r="0.6" fill="#ffffff" opacity="0.55"/>
    <circle cx="850" cy="230" r="0.5" fill="#ffffff" opacity="0.4"/>
    <circle cx="950" cy="200" r="0.7" fill="#ffffff" opacity="0.5"/>
    <circle cx="1050" cy="300" r="0.6" fill="#ffffff" opacity="0.45"/>
    <circle cx="1280" cy="340" r="0.5" fill="#ffffff" opacity="0.4"/>
    <circle cx="1380" cy="260" r="0.8" fill="#ffffff" opacity="0.6"/>
    <circle cx="1460" cy="420" r="0.6" fill="#ffffff" opacity="0.5"/>
    <circle cx="1550" cy="510" r="0.5" fill="#ffffff" opacity="0.35"/>
    <circle cx="1640" cy="390" r="0.7" fill="#ffffff" opacity="0.55"/>
    <circle cx="1730" cy="280" r="0.6" fill="#ffffff" opacity="0.45"/>
    <circle cx="1810" cy="440" r="0.5" fill="#ffffff" opacity="0.4"/>
    <circle cx="1880" cy="360" r="0.8" fill="#ffffff" opacity="0.6"/>
    <circle cx="1550" cy="620" r="0.6" fill="#ffffff" opacity="0.5"/>
    <circle cx="1640" cy="710" r="0.5" fill="#ffffff" opacity="0.4"/>
    <circle cx="1730" cy="580" r="0.7" fill="#ffffff" opacity="0.55"/>
    <circle cx="1810" cy="670" r="0.6" fill="#ffffff" opacity="0.45"/>
    <circle cx="1900" cy="540" r="0.5" fill="#ffffff" opacity="0.35"/>
    <circle cx="1560" cy="830" r="0.7" fill="#ffffff" opacity="0.5"/>
    <circle cx="1650" cy="920" r="0.6" fill="#ffffff" opacity="0.55"/>
    <circle cx="1740" cy="800" r="0.5" fill="#ffffff" opacity="0.4"/>
    <circle cx="1830" cy="890" r="0.8" fill="#ffffff" opacity="0.6"/>
    <circle cx="1900" cy="780" r="0.6" fill="#ffffff" opacity="0.5"/>
    <circle cx="1580" cy="1010" r="0.5" fill="#ffffff" opacity="0.4"/>
    <circle cx="1700" cy="1050" r="0.7" fill="#ffffff" opacity="0.5"/>
    <circle cx="1850" cy="990" r="0.6" fill="#ffffff" opacity="0.45"/>
    <circle cx="340" cy="350" r="0.5" fill="#ffffff" opacity="0.4"/>
    <circle cx="460" cy="450" r="0.6" fill="#ffffff" opacity="0.5"/>
    <circle cx="560" cy="350" r="0.5" fill="#ffffff" opacity="0.35"/>
    <circle cx="650" cy="250" r="0.7" fill="#ffffff" opacity="0.5"/>
    <circle cx="750" cy="750" r="0.6" fill="#ffffff" opacity="0.45"/>
    <circle cx="850" cy="850" r="0.5" fill="#ffffff" opacity="0.4"/>
    <circle cx="950" cy="950" r="0.7" fill="#ffffff" opacity="0.55"/>
    <circle cx="1050" cy="870" r="0.6" fill="#ffffff" opacity="0.5"/>
    <circle cx="1150" cy="780" r="0.5" fill="#ffffff" opacity="0.35"/>
    <circle cx="1250" cy="920" r="0.8" fill="#ffffff" opacity="0.6"/>
    <circle cx="1350" cy="1040" r="0.6" fill="#ffffff" opacity="0.45"/>
    <circle cx="1450" cy="880" r="0.5" fill="#ffffff" opacity="0.4"/>
    <circle cx="440" cy="1050" r="0.7" fill="#ffffff" opacity="0.5"/>
    <circle cx="560" cy="960" r="0.6" fill="#ffffff" opacity="0.55"/>
    <circle cx="660" cy="870" r="0.5" fill="#ffffff" opacity="0.4"/>
    <circle cx="760" cy="1020" r="0.7" fill="#ffffff" opacity="0.5"/>
    <circle cx="860" cy="680" r="0.6" fill="#ffffff" opacity="0.45"/>
    <circle cx="970" cy="760" r="0.5" fill="#ffffff" opacity="0.4"/>
    <circle cx="1070" cy="650" r="0.6" fill="#ffffff" opacity="0.5"/>
    <circle cx="1170" cy="950" r="0.5" fill="#ffffff" opacity="0.35"/>
    <circle cx="1270" cy="600" r="0.7" fill="#ffffff" opacity="0.55"/>
    <circle cx="1370" cy="700" r="0.6" fill="#ffffff" opacity="0.5"/>
    <circle cx="1470" cy="610" r="0.5" fill="#ffffff" opacity="0.4"/>
    <circle cx="380" cy="580" r="0.6" fill="#ffffff" opacity="0.45"/>
    <circle cx="290" cy="680" r="0.5" fill="#ffffff" opacity="0.4"/>

    <!-- Pale blue stars -->
    <circle cx="92" cy="195" r="0.8" fill="#aaccff" opacity="0.6"/>
    <circle cx="345" cy="210" r="0.6" fill="#bbddff" opacity="0.5"/>
    <circle cx="580" cy="290" r="0.7" fill="#aaccff" opacity="0.55"/>
    <circle cx="820" cy="180" r="0.9" fill="#bbddff" opacity="0.65"/>
    <circle cx="1050" cy="160" r="0.6" fill="#aaccff" opacity="0.45"/>
    <circle cx="1320" cy="95" r="0.8" fill="#bbddff" opacity="0.6"/>
    <circle cx="1520" cy="220" r="0.7" fill="#aaccff" opacity="0.5"/>
    <circle cx="1750" cy="170" r="0.6" fill="#bbddff" opacity="0.55"/>
    <circle cx="185" cy="560" r="0.7" fill="#aaccff" opacity="0.5"/>
    <circle cx="480" cy="830" r="0.6" fill="#bbddff" opacity="0.45"/>
    <circle cx="710" cy="960" r="0.8" fill="#aaccff" opacity="0.55"/>
    <circle cx="1090" cy="1040" r="0.7" fill="#bbddff" opacity="0.5"/>
    <circle cx="1340" cy="820" r="0.6" fill="#aaccff" opacity="0.45"/>
    <circle cx="1680" cy="490" r="0.7" fill="#bbddff" opacity="0.55"/>
    <circle cx="1870" cy="250" r="0.6" fill="#aaccff" opacity="0.5"/>
    <circle cx="35" cy="730" r="0.8" fill="#bbddff" opacity="0.6"/>
    <circle cx="290" cy="1060" r="0.7" fill="#aaccff" opacity="0.45"/>
    <circle cx="1790" cy="760" r="0.6" fill="#bbddff" opacity="0.5"/>

    <!-- Pale yellow stars -->
    <circle cx="165" cy="310" r="0.7" fill="#ffeedd" opacity="0.5"/>
    <circle cx="455" cy="155" r="0.6" fill="#ffeecc" opacity="0.45"/>
    <circle cx="720" cy="210" r="0.8" fill="#ffeedd" opacity="0.55"/>
    <circle cx="990" cy="120" r="0.6" fill="#ffeecc" opacity="0.5"/>
    <circle cx="1210" cy="210" r="0.7" fill="#ffeedd" opacity="0.45"/>
    <circle cx="1480" cy="310" r="0.6" fill="#ffeecc" opacity="0.5"/>
    <circle cx="1710" cy="410" r="0.7" fill="#ffeedd" opacity="0.55"/>
    <circle cx="70" cy="480" r="0.6" fill="#ffeecc" opacity="0.45"/>
    <circle cx="350" cy="730" r="0.7" fill="#ffeedd" opacity="0.5"/>
    <circle cx="620" cy="1040" r="0.6" fill="#ffeecc" opacity="0.45"/>
    <circle cx="880" cy="430" r="0.7" fill="#ffeedd" opacity="0.5"/>
    <circle cx="1480" cy="750" r="0.6" fill="#ffeecc" opacity="0.45"/>
    <circle cx="1890" cy="630" r="0.7" fill="#ffeedd" opacity="0.5"/>

    <!-- Faint red stars -->
    <circle cx="250" cy="440" r="0.6" fill="#ffaa88" opacity="0.35"/>
    <circle cx="550" cy="480" r="0.7" fill="#ff9977" opacity="0.3"/>
    <circle cx="810" cy="560" r="0.6" fill="#ffaa88" opacity="0.35"/>
    <circle cx="1310" cy="480" r="0.7" fill="#ff9977" opacity="0.3"/>
    <circle cx="1610" cy="560" r="0.6" fill="#ffaa88" opacity="0.35"/>
    <circle cx="110" cy="920" r="0.7" fill="#ff9977" opacity="0.3"/>
    <circle cx="940" cy="1060" r="0.6" fill="#ffaa88" opacity="0.35"/>
    <circle cx="1780" cy="920" r="0.7" fill="#ff9977" opacity="0.3"/>

    <!-- Bright stars with diffraction spikes -->
    <g filter="url(#softGlow)">
      <!-- Bright star 1 — upper right -->
      <circle cx="1620" cy="145" r="1.8" fill="#ffffff" opacity="0.9"/>
      <line x1="1612" y1="145" x2="1628" y2="145" stroke="#ffffff" stroke-width="0.4" opacity="0.6"/>
      <line x1="1620" y1="137" x2="1620" y2="153" stroke="#ffffff" stroke-width="0.4" opacity="0.6"/>
      <!-- Bright star 2 — left -->
      <circle cx="210" cy="650" r="2.0" fill="#ffffff" opacity="0.85"/>
      <line x1="200" y1="650" x2="220" y2="650" stroke="#ffffff" stroke-width="0.4" opacity="0.55"/>
      <line x1="210" y1="640" x2="210" y2="660" stroke="#ffffff" stroke-width="0.4" opacity="0.55"/>
      <!-- Bright star 3 — lower right -->
      <circle cx="1780" cy="680" r="1.6" fill="#ddeeff" opacity="0.85"/>
      <line x1="1772" y1="680" x2="1788" y2="680" stroke="#ddeeff" stroke-width="0.35" opacity="0.5"/>
      <line x1="1780" y1="672" x2="1780" y2="688" stroke="#ddeeff" stroke-width="0.35" opacity="0.5"/>
      <!-- Bright star 4 — upper center -->
      <circle cx="870" cy="75" r="1.5" fill="#ffeedd" opacity="0.8"/>
      <line x1="863" y1="75" x2="877" y2="75" stroke="#ffeedd" stroke-width="0.35" opacity="0.5"/>
      <line x1="870" y1="68" x2="870" y2="82" stroke="#ffeedd" stroke-width="0.35" opacity="0.5"/>
      <!-- Bright star 5 — bottom left -->
      <circle cx="130" cy="1010" r="2.2" fill="#ffffff" opacity="0.8"/>
      <line x1="118" y1="1010" x2="142" y2="1010" stroke="#ffffff" stroke-width="0.4" opacity="0.5"/>
      <line x1="130" y1="998" x2="130" y2="1022" stroke="#ffffff" stroke-width="0.4" opacity="0.5"/>
    </g>

    <!-- Inner belt — sparse dim points in a rough band across mid-frame -->
    <g opacity="0.25">
      <circle cx="320" cy="460" r="0.4" fill="#888877"/>
      <circle cx="380" cy="475" r="0.3" fill="#999988"/>
      <circle cx="450" cy="452" r="0.5" fill="#777766"/>
      <circle cx="530" cy="468" r="0.3" fill="#888877"/>
      <circle cx="600" cy="445" r="0.4" fill="#999988"/>
      <circle cx="670" cy="470" r="0.3" fill="#777766"/>
      <circle cx="740" cy="458" r="0.5" fill="#888877"/>
      <circle cx="820" cy="472" r="0.3" fill="#999988"/>
      <circle cx="900" cy="448" r="0.4" fill="#777766"/>
      <circle cx="1000" cy="465" r="0.3" fill="#888877"/>
      <circle cx="1300" cy="455" r="0.4" fill="#999988"/>
      <circle cx="1380" cy="470" r="0.3" fill="#777766"/>
      <circle cx="1460" cy="450" r="0.5" fill="#888877"/>
      <circle cx="1540" cy="462" r="0.3" fill="#999988"/>
      <circle cx="1620" cy="475" r="0.4" fill="#777766"/>
      <circle cx="1700" cy="455" r="0.3" fill="#888877"/>
      <circle cx="1780" cy="468" r="0.4" fill="#999988"/>
      <circle cx="1860" cy="452" r="0.3" fill="#777766"/>
      <circle cx="500" cy="490" r="0.3" fill="#888877"/>
      <circle cx="680" cy="440" r="0.4" fill="#777766"/>
      <circle cx="860" cy="485" r="0.3" fill="#999988"/>
      <circle cx="1420" cy="442" r="0.4" fill="#888877"/>
      <circle cx="1580" cy="488" r="0.3" fill="#777766"/>
    </g>
  </g>

  <!-- ============================================ -->
  <!-- LAYER 2: THE STAR (M2 V red dwarf)          -->
  <!-- ============================================ -->
  <g>
    <!-- Outer glow / corona -->
    <circle cx="400" cy="280" r="100" fill="url(#starGlow)" filter="url(#starBloom)"/>
    <!-- Corona wisps -->
    <ellipse cx="400" cy="280" rx="70" ry="55" fill="#ff4400" opacity="0.06" transform="rotate(15, 400, 280)"/>
    <ellipse cx="400" cy="280" rx="60" ry="80" fill="#ff4400" opacity="0.05" transform="rotate(-20, 400, 280)"/>
    <!-- Star disc -->
    <circle cx="400" cy="280" r="18" fill="url(#starCore)" filter="url(#softGlow)"/>
    <!-- Hot spot -->
    <circle cx="395" cy="274" r="6" fill="#ffaa66" opacity="0.4"/>
    <!-- Lens flare — thin horizontal lines -->
    <line x1="280" y1="280" x2="520" y2="280" stroke="#ff6633" stroke-width="0.6" opacity="0.15"/>
    <line x1="310" y1="280" x2="490" y2="280" stroke="#ffaa66" stroke-width="0.3" opacity="0.2"/>
    <line x1="340" y1="282" x2="460" y2="278" stroke="#ff8844" stroke-width="0.4" opacity="0.1"/>
    <!-- Subtle red light spill on nearby space -->
    <circle cx="400" cy="280" r="180" fill="#ff3300" opacity="0.015"/>
  </g>

  <!-- ============================================ -->
  <!-- LAYER 3: MILAGRO (the planet)               -->
  <!-- ============================================ -->
  <g>
    <!-- Planet sphere base -->
    <circle cx="1150" cy="480" r="72" fill="url(#planetBase)"/>

    <!-- Surface detail (clipped to planet) -->
    <g clip-path="url(#planetClip)">
      <!-- Crater texture — small circles of varying browns -->
      <circle cx="1125" cy="455" r="8" fill="#5a4e3e" opacity="0.5"/>
      <circle cx="1140" cy="470" r="5" fill="#7a6b5a" opacity="0.4"/>
      <circle cx="1110" cy="480" r="6" fill="#5e5040" opacity="0.45"/>
      <circle cx="1155" cy="445" r="4" fill="#6b5d4d" opacity="0.3"/>
      <circle cx="1130" cy="500" r="7" fill="#5a4e3e" opacity="0.4"/>
      <circle cx="1165" cy="465" r="3" fill="#7a6b5a" opacity="0.35"/>
      <circle cx="1120" cy="440" r="5" fill="#504535" opacity="0.5"/>
      <circle cx="1145" cy="510" r="6" fill="#5e5040" opacity="0.35"/>
      <circle cx="1100" cy="465" r="4" fill="#6b5d4d" opacity="0.4"/>
      <circle cx="1170" cy="488" r="5" fill="#5a4e3e" opacity="0.3"/>
      <circle cx="1138" cy="430" r="3" fill="#7a6b5a" opacity="0.4"/>
      <circle cx="1115" cy="510" r="4" fill="#504535" opacity="0.45"/>
      <circle cx="1160" cy="502" r="3" fill="#5e5040" opacity="0.35"/>
      <circle cx="1105" cy="448" r="6" fill="#6b5d4d" opacity="0.3"/>
      <circle cx="1148" cy="492" r="4" fill="#5a4e3e" opacity="0.4"/>
      <circle cx="1132" cy="458" r="3" fill="#7a6b5a" opacity="0.35"/>
      <circle cx="1090" cy="475" r="5" fill="#504535" opacity="0.3"/>
      <circle cx="1175" cy="450" r="3" fill="#5e5040" opacity="0.25"/>

      <!-- Copper-orange patches (clear terrain) -->
      <ellipse cx="1130" cy="475" rx="15" ry="10" fill="#b5643b" opacity="0.25" transform="rotate(-15, 1130, 475)"/>
      <ellipse cx="1155" cy="460" rx="10" ry="7" fill="#a85a35" opacity="0.2" transform="rotate(20, 1155, 460)"/>
      <ellipse cx="1115" cy="495" rx="12" ry="8" fill="#b5643b" opacity="0.2" transform="rotate(10, 1115, 495)"/>

      <!-- Frozen ocean — Brine Basin (equatorial, deeper blue) -->
      <ellipse cx="1140" cy="480" rx="22" ry="14" fill="#4167b7" opacity="0.35" transform="rotate(-10, 1140, 480)"/>
      <ellipse cx="1125" cy="488" rx="15" ry="8" fill="#3a5ea6" opacity="0.25" transform="rotate(5, 1125, 488)"/>

      <!-- Ice — polar caps and scattered sheets -->
      <!-- North pole -->
      <ellipse cx="1148" cy="415" rx="28" ry="12" fill="#d4e5f7" opacity="0.45"/>
      <ellipse cx="1140" cy="420" rx="20" ry="8" fill="#e0eef9" opacity="0.35"/>
      <!-- South pole -->
      <ellipse cx="1155" cy="545" rx="25" ry="10" fill="#d4e5f7" opacity="0.4"/>
      <ellipse cx="1148" cy="540" rx="18" ry="7" fill="#e0eef9" opacity="0.3"/>
      <!-- Scattered ice -->
      <ellipse cx="1110" cy="450" rx="8" ry="5" fill="#d4e5f7" opacity="0.25" transform="rotate(30, 1110, 450)"/>
      <ellipse cx="1165" cy="500" rx="6" ry="4" fill="#d4e5f7" opacity="0.2" transform="rotate(-20, 1165, 500)"/>
      <ellipse cx="1098" cy="490" rx="7" ry="4" fill="#d4e5f7" opacity="0.2"/>

      <!-- Terminator shadow overlay -->
      <circle cx="1150" cy="480" r="72" fill="url(#planetShadow)"/>

      <!-- Domed cities — tiny bright dots on facing hemisphere -->
      <!-- 3 on the lit side, 2 on the dark side (visible as glowing dots) -->
      <g filter="url(#domeGlow)">
        <!-- Lit-side domes (yellow-white, small) -->
        <circle cx="1128" cy="472" r="1.2" fill="#ffcc66" opacity="0.9"/>
        <circle cx="1135" cy="485" r="1.0" fill="#ffcc66" opacity="0.8"/>
        <circle cx="1120" cy="462" r="0.8" fill="#ffdd88" opacity="0.7"/>
        <!-- Dark-side domes (bright against shadow) -->
        <circle cx="1185" cy="475" r="1.3" fill="#ffcc66" opacity="1"/>
        <circle cx="1192" cy="490" r="1.0" fill="#ffdd88" opacity="0.9"/>
      </g>
    </g>

    <!-- Atmosphere limb — thinnest sliver on lit side -->
    <circle cx="1150" cy="480" r="73" fill="none" stroke="#aabbcc" stroke-width="0.8" opacity="0.12"/>
    <!-- Just the lit arc — upper-left quadrant -->
    <path d="M1150,407 A73,73 0 0,0 1078,480" fill="none" stroke="#ccddee" stroke-width="0.6" opacity="0.15"/>
  </g>

  <!-- ============================================ -->
  <!-- LAYER 4: THE ASTRAL DAWN                    -->
  <!-- ============================================ -->
  <g transform="translate(960, 700)">
    <!-- Ship shadow/underside (gives depth) -->
    <ellipse cx="0" cy="4" rx="32" ry="8" fill="#0a0808" opacity="0.5"/>

    <!-- Hull — elongated wedge seen from behind/above -->
    <!-- Main body: broader at stern, tapering forward -->
    <path d="M-28,0 L-22,-4 L0,-20 L22,-4 L28,0 L20,3 L0,6 L-20,3 Z"
          fill="url(#hullGrad)" stroke="#4a4038" stroke-width="0.5"/>
    <!-- Upper hull highlight (star illumination from upper-left) -->
    <path d="M-22,-4 L0,-20 L10,-12 L-10,-2 Z" fill="#8a7a65" opacity="0.3"/>
    <!-- Stern plate -->
    <path d="M-28,0 L-20,3 L20,3 L28,0 L20,-1 L-20,-1 Z" fill="#3d352d" stroke="#2a2420" stroke-width="0.3"/>

    <!-- Engine glow — 3 thrusters at stern -->
    <g filter="url(#engineGlow)">
      <circle cx="-12" cy="1" r="3.5" fill="url(#engineBloom)"/>
      <circle cx="0" cy="2" r="4" fill="url(#engineBloom)"/>
      <circle cx="12" cy="1" r="3.5" fill="url(#engineBloom)"/>
    </g>
    <!-- Engine core (brighter) -->
    <circle cx="-12" cy="1" r="1.5" fill="#ffffff" opacity="0.8"/>
    <circle cx="0" cy="2" r="1.8" fill="#ffffff" opacity="0.85"/>
    <circle cx="12" cy="1" r="1.5" fill="#ffffff" opacity="0.8"/>

    <!-- Running lights -->
    <circle cx="-25" cy="-1" r="0.8" fill="#ff3333" opacity="0.9"/>  <!-- port red -->
    <circle cx="25" cy="-1" r="0.8" fill="#33ff33" opacity="0.9"/>   <!-- starboard green -->
    <!-- Stern white light -->
    <circle cx="0" cy="5" r="0.6" fill="#ffffff" opacity="0.7"/>
  </g>

  <!-- ============================================ -->
  <!-- LAYER 5: SUBTLE DETAILS                     -->
  <!-- ============================================ -->

  <!-- Jump flash residual — concentric violet ripples behind ship -->
  <g opacity="0.7">
    <ellipse cx="960" cy="720" rx="60" ry="25" fill="none" stroke="#6633cc" stroke-width="0.8" opacity="0.1"/>
    <ellipse cx="960" cy="730" rx="100" ry="40" fill="none" stroke="#6633cc" stroke-width="0.6" opacity="0.07"/>
    <ellipse cx="960" cy="740" rx="150" ry="55" fill="none" stroke="#6633cc" stroke-width="0.5" opacity="0.05"/>
    <ellipse cx="960" cy="750" rx="210" ry="70" fill="none" stroke="#7744dd" stroke-width="0.4" opacity="0.03"/>
    <!-- Faint violet glow at jump point -->
    <ellipse cx="960" cy="730" rx="80" ry="35" fill="url(#jumpRipple)"/>
  </g>

  <!-- Navigational HUD suggestion — lower-left corner -->
  <g opacity="0.15" stroke="#00cccc" fill="none" stroke-width="0.5">
    <!-- Outer frame -->
    <path d="M40,1000 L40,940 L50,930 L200,930 L210,940"/>
    <path d="M40,1000 L50,1010 L200,1010 L210,1000"/>
    <!-- Inner elements — bearing lines -->
    <line x1="60" y1="950" x2="60" y2="1000" stroke-dasharray="2 4"/>
    <line x1="80" y1="960" x2="80" y2="1000" stroke-dasharray="2 4"/>
    <line x1="100" y1="945" x2="100" y2="1000" stroke-dasharray="2 4"/>
    <line x1="120" y1="955" x2="120" y2="1000" stroke-dasharray="2 4"/>
    <line x1="140" y1="950" x2="140" y2="1000" stroke-dasharray="2 4"/>
    <line x1="160" y1="965" x2="160" y2="1000" stroke-dasharray="2 4"/>
    <line x1="180" y1="948" x2="180" y2="1000" stroke-dasharray="2 4"/>
    <!-- Cross-line -->
    <line x1="55" y1="970" x2="195" y2="970"/>
    <!-- Tiny blip (the planet) -->
    <circle cx="155" cy="955" r="2" fill="#00cccc" opacity="0.3"/>
    <!-- Tiny blip (the star) -->
    <circle cx="75" cy="948" r="1.5" fill="#00cccc" opacity="0.2"/>
  </g>
</svg>